<?xml version="1.0" standalone="no"?>
<!DOCTYPE svg PUBLIC "-//W3C//DTD SVG 20010904//EN"
 "http://www.w3.org/TR/2001/REC-SVG-20010904/DTD/svg10.dtd">
<svg version="1.0" xmlns="http://www.w3.org/2000/svg"
 width="1024.000000pt" height="1024.000000pt" viewBox="0 0 1024.000000 1024.000000"
 preserveAspectRatio="xMidYMid meet">

<g transform="translate(0.000000,1024.000000) scale(0.100000,-0.100000)"
fill="#000000" stroke="none">
<path d="M4582 8145 l-523 -522 -699 -5 c-384 -3 -703 -8 -709 -12 -8 -5 -11
-205 -11 -714 l0 -708 -538 -537 -538 -537 538 -531 538 -531 0 -693 0 -694
21 -12 c15 -8 211 -10 702 -8 l680 3 301 -304 c166 -168 406 -408 534 -534
l232 -229 37 26 c21 15 268 254 548 532 l510 505 680 0 c411 0 686 4 695 10
13 8 15 100 18 711 l3 702 535 531 534 530 -535 533 -535 533 0 704 c0 388 -3
707 -7 709 -5 3 -314 8 -688 12 l-680 7 -53 35 c-55 35 -373 336 -642 607 -85
86 -160 156 -166 156 -6 0 -66 56 -133 125 -67 69 -122 124 -124 123 -1 -1
-237 -237 -525 -523z m589 135 c62 -46 309 -270 384 -348 27 -29 112 -118 188
-197 75 -79 137 -147 137 -152 0 -5 -25 -17 -56 -27 -184 -58 -341 -153 -474
-286 -80 -79 -177 -212 -216 -293 l-17 -35 -30 57 c-122 231 -383 451 -641
540 -53 18 -96 35 -94 37 81 86 718 723 733 731 28 17 25 18 86 -27z m-936
-919 c167 -34 327 -111 435 -208 75 -67 184 -212 225 -299 77 -161 104 -293
105 -497 l0 -89 -52 45 c-114 95 -233 159 -363 193 -63 17 -111 19 -470 19
l-400 0 0 -395 c0 -365 1 -399 19 -443 13 -33 16 -51 9 -58 -22 -22 93 -246
183 -357 l26 -33 -98 6 c-222 12 -257 16 -339 40 -47 14 -114 39 -148 56 -196
98 -382 303 -451 498 l-31 86 -3 722 -3 722 153 4 c84 1 369 4 633 5 435 2
489 0 570 -17z m3123 -643 l-3 -663 -27 -98 c-56 -205 -186 -411 -324 -515
-89 -67 -228 -136 -329 -163 -60 -16 -119 -23 -235 -26 -85 -2 -150 -1 -144 4
26 20 99 123 130 185 19 37 46 107 61 155 l27 88 4 423 4 423 -404 -3 c-378
-4 -408 -6 -482 -26 -137 -38 -241 -95 -330 -181 l-78 -76 5 170 c6 203 23
281 97 432 83 169 194 289 370 397 89 55 202 103 284 121 47 10 212 14 719 14
l658 1 -3 -662z m-2796 -443 c98 -33 170 -79 252 -160 82 -82 128 -161 156
-271 17 -67 20 -111 20 -342 l0 -264 -282 5 c-311 5 -350 11 -462 70 -127 68
-223 188 -273 344 -21 65 -26 106 -32 243 -3 91 -5 219 -3 285 l3 120 275 -3
c259 -3 280 -5 346 -27z m1728 -243 c0 -286 -10 -364 -58 -459 -56 -109 -174
-221 -289 -275 -98 -46 -187 -57 -466 -58 l-249 0 4 283 c4 274 5 284 31 364
52 157 141 255 312 340 136 69 147 71 448 72 l267 1 0 -268z m-3591 -224 c31
-95 97 -225 159 -313 93 -132 248 -273 373 -340 52 -28 59 -34 41 -39 -42 -14
-169 -105 -244 -175 -98 -92 -187 -209 -242 -320 -42 -83 -96 -228 -96 -257 0
-8 -5 -14 -11 -14 -18 0 -779 746 -779 763 0 9 761 766 771 767 3 0 16 -33 28
-72z m5287 -338 c193 -190 350 -348 350 -351 -2 -12 -787 -782 -792 -776 -3 2
-12 42 -20 88 -17 98 -44 159 -114 257 -100 142 -257 289 -418 392 l-73 47 59
21 c87 32 145 78 274 219 102 110 126 144 177 243 32 63 69 148 81 188 l22 72
51 -27 c37 -19 154 -128 403 -373z m-2996 -742 c0 -204 -4 -297 -14 -333 -45
-171 -166 -309 -341 -390 -106 -49 -150 -55 -435 -55 l-260 0 -2 148 c-4 199
1 356 13 423 13 78 100 238 171 314 82 88 195 144 333 164 33 5 167 9 298 10
l237 1 0 -282z m845 267 c167 -42 295 -143 372 -291 75 -144 83 -191 83 -491
l0 -263 -253 0 c-287 0 -321 5 -456 71 -123 60 -218 154 -277 273 -65 132 -74
188 -74 474 l0 242 273 0 c211 0 286 -3 332 -15z m733 -6 c193 -23 347 -90
468 -202 144 -134 248 -300 296 -472 22 -79 22 -92 26 -762 l3 -683 -643 0
c-378 0 -672 5 -713 10 -220 32 -429 165 -585 372 -131 174 -180 330 -194 625
l-5 102 37 -20 c20 -12 64 -40 97 -64 76 -54 228 -130 303 -152 48 -14 123
-17 460 -21 l402 -4 0 374 c0 294 -3 392 -16 463 -25 147 -102 305 -191 399
-24 24 -43 47 -43 51 0 8 181 -2 298 -16z m-2633 2 c3 -5 -16 -38 -43 -73 -73
-95 -116 -184 -154 -314 -22 -76 -23 -92 -23 -479 l0 -400 360 -3 c218 -2 393
2 443 8 146 19 279 78 408 181 34 27 65 49 69 49 11 0 -5 -308 -21 -385 -28
-139 -143 -335 -262 -446 -79 -74 -146 -118 -266 -175 -174 -82 -128 -77 -889
-81 l-678 -4 4 683 c3 675 3 684 26 763 32 112 91 230 161 324 151 200 332
307 585 345 105 16 271 20 280 7z m1293 -1861 c133 -190 426 -404 620 -453
l53 -13 -391 -385 -391 -384 -379 380 c-209 209 -383 383 -386 387 -3 3 21 14
53 23 166 48 353 164 498 309 90 90 106 112 153 208 28 59 52 113 52 120 1 7
17 -18 36 -57 20 -38 56 -99 82 -135z"/>
</g>
</svg>
